<?xml version="1.0" encoding="UTF-8"?><svg xmlns="http://www.w3.org/2000/svg" xmlns:xlink="http://www.w3.org/1999/xlink" fill-opacity="1" color-rendering="auto" color-interpolation="auto" text-rendering="auto" stroke="black" stroke-linecap="square" width="596" stroke-miterlimit="10" shape-rendering="auto" stroke-opacity="1" fill="black" stroke-dasharray="none" font-weight="normal" stroke-width="1" height="385" font-family="'Dialog'" font-style="normal" stroke-linejoin="miter" font-size="12px" stroke-dashoffset="0" image-rendering="auto">
  <!--Generated by ySVG 2.5-->
  <defs id="genericDefs"/>
  <g>
    <defs id="defs1">
      <clipPath clipPathUnits="userSpaceOnUse" id="clipPath1">
        <path d="M0 0 L596 0 L596 385 L0 385 L0 0 Z"/>
      </clipPath>
      <clipPath clipPathUnits="userSpaceOnUse" id="clipPath2">
        <path d="M76 54 L672 54 L672 439 L76 439 L76 54 Z"/>
      </clipPath>
      <clipPath clipPathUnits="userSpaceOnUse" id="clipPath3">
        <path d="M76 87.2969 L76 439 L672 439 L672 87.2969 Z"/>
      </clipPath>
      <clipPath clipPathUnits="userSpaceOnUse" id="clipPath4">
        <path d="M76 54 L76 87.2969 L672 87.2969 L672 54 Z"/>
      </clipPath>
      <clipPath clipPathUnits="userSpaceOnUse" id="clipPath5">
        <path d="M76 199.4987 L76 439 L672 439 L672 199.4987 Z"/>
      </clipPath>
      <clipPath clipPathUnits="userSpaceOnUse" id="clipPath6">
        <path d="M76 54 L76 199.4987 L672 199.4987 L672 54 Z"/>
      </clipPath>
      <clipPath clipPathUnits="userSpaceOnUse" id="clipPath7">
        <path d="M76 270.2019 L76 439 L672 439 L672 270.2019 Z"/>
      </clipPath>
      <clipPath clipPathUnits="userSpaceOnUse" id="clipPath8">
        <path d="M76 54 L76 270.2019 L672 270.2019 L672 54 Z"/>
      </clipPath>
      <clipPath clipPathUnits="userSpaceOnUse" id="clipPath9">
        <path d="M76 318.3369 L76 439 L672 439 L672 318.3369 Z"/>
      </clipPath>
      <clipPath clipPathUnits="userSpaceOnUse" id="clipPath10">
        <path d="M76 54 L76 318.3369 L672 318.3369 L672 54 Z"/>
      </clipPath>
      <clipPath clipPathUnits="userSpaceOnUse" id="clipPath11">
        <path d="M76 409.8156 L76 439 L672 439 L672 409.8156 Z"/>
      </clipPath>
      <clipPath clipPathUnits="userSpaceOnUse" id="clipPath12">
        <path d="M76 54 L76 409.8156 L672 409.8156 L672 54 Z"/>
      </clipPath>
    </defs>
    <g fill="white" text-rendering="geometricPrecision" shape-rendering="geometricPrecision" transform="translate(-76,-54)" stroke="white">
      <rect x="76" width="596" height="385" y="54" clip-path="url(#clipPath2)" stroke="none"/>
    </g>
    <g fill="white" text-rendering="geometricPrecision" shape-rendering="geometricPrecision" transform="matrix(1,0,0,1,-76,-54)" stroke="white">
      <rect x="199.4063" y="59" clip-path="url(#clipPath3)" width="331.96" rx="4" ry="4" height="88.36" stroke="none"/>
      <rect x="199.4063" y="59" clip-path="url(#clipPath4)" fill="rgb(234,234,234)" width="331.96" rx="4" ry="4" height="88.36" stroke="none"/>
    </g>
    <g text-rendering="geometricPrecision" stroke-miterlimit="1.45" shape-rendering="geometricPrecision" transform="matrix(1,0,0,1,-76,-54)" stroke-linecap="butt">
      <rect x="199.4063" y="59" clip-path="url(#clipPath2)" fill="none" width="331.96" rx="4" ry="4" height="88.36"/>
      <line y2="87.2969" fill="none" x1="199.4063" clip-path="url(#clipPath2)" x2="531.3663" y1="87.2969"/>
      <text x="302.171" font-size="14px" y="77.9951" clip-path="url(#clipPath2)" font-family="monospace" stroke="none" xml:space="preserve">POST /employees</text>
      <text x="203.4063" font-size="14px" y="106.292" clip-path="url(#clipPath2)" font-family="monospace" stroke="none" xml:space="preserve">{"data": </text>
      <text x="203.4063" font-size="14px" y="122.5889" clip-path="url(#clipPath2)" font-family="monospace" stroke="none" xml:space="preserve">{"name": "Paul", "status": "employed"}</text>
      <text x="203.4063" font-size="14px" y="138.8857" clip-path="url(#clipPath2)" font-family="monospace" stroke="none" xml:space="preserve">}</text>
    </g>
    <g fill="white" text-rendering="geometricPrecision" shape-rendering="geometricPrecision" transform="matrix(1,0,0,1,-76,-54)" stroke="white">
      <rect x="199.4063" y="154.905" clip-path="url(#clipPath5)" width="331.96" rx="4" ry="4" height="57" stroke="none"/>
      <rect x="199.4063" y="154.905" clip-path="url(#clipPath6)" fill="rgb(234,234,234)" width="331.96" rx="4" ry="4" height="57" stroke="none"/>
    </g>
    <g text-rendering="geometricPrecision" stroke-miterlimit="1.45" shape-rendering="geometricPrecision" transform="matrix(1,0,0,1,-76,-54)" stroke-linecap="butt">
      <rect x="199.4063" y="154.905" clip-path="url(#clipPath2)" fill="none" width="331.96" rx="4" ry="4" height="57"/>
      <line y2="199.4988" fill="none" x1="199.4063" clip-path="url(#clipPath2)" x2="531.3663" y1="199.4988"/>
      <text x="268.4561" font-size="14px" y="173.9001" clip-path="url(#clipPath2)" font-family="monospace" stroke="none" xml:space="preserve">201 Created</text>
      <text x="268.4561" font-size="14px" y="190.197" clip-path="url(#clipPath2)" font-family="monospace" stroke="none" xml:space="preserve">Location: /employees/21</text>
    </g>
    <g fill="white" text-rendering="geometricPrecision" shape-rendering="geometricPrecision" transform="matrix(1,0,0,1,-76,-54)" stroke="white">
      <rect x="199.4063" y="241.905" clip-path="url(#clipPath7)" width="331.96" rx="4" ry="4" height="40.36" stroke="none"/>
      <rect x="199.4063" y="241.905" clip-path="url(#clipPath8)" fill="rgb(234,234,234)" width="331.96" rx="4" ry="4" height="40.36" stroke="none"/>
    </g>
    <g text-rendering="geometricPrecision" stroke-miterlimit="1.45" shape-rendering="geometricPrecision" transform="matrix(1,0,0,1,-76,-54)" stroke-linecap="butt">
      <rect x="199.4063" y="241.905" clip-path="url(#clipPath2)" fill="none" width="331.96" rx="4" ry="4" height="40.36"/>
      <line y2="270.2019" fill="none" x1="199.4063" clip-path="url(#clipPath2)" x2="531.3663" y1="270.2019"/>
      <text x="293.7423" font-size="14px" y="260.9001" clip-path="url(#clipPath2)" font-family="monospace" stroke="none" xml:space="preserve">GET /employees/21</text>
    </g>
    <g fill="white" text-rendering="geometricPrecision" shape-rendering="geometricPrecision" transform="matrix(1,0,0,1,-76,-54)" stroke="white">
      <rect x="199.4063" y="290.04" clip-path="url(#clipPath9)" width="331.96" rx="4" ry="4" height="88.36" stroke="none"/>
      <rect x="199.4063" y="290.04" clip-path="url(#clipPath10)" fill="rgb(234,234,234)" width="331.96" rx="4" ry="4" height="88.36" stroke="none"/>
    </g>
    <g text-rendering="geometricPrecision" stroke-miterlimit="1.45" shape-rendering="geometricPrecision" transform="matrix(1,0,0,1,-76,-54)" stroke-linecap="butt">
      <rect x="199.4063" y="290.04" clip-path="url(#clipPath2)" fill="none" width="331.96" rx="4" ry="4" height="88.36"/>
      <line y2="318.3369" fill="none" x1="199.4063" clip-path="url(#clipPath2)" x2="531.3663" y1="318.3369"/>
      <text x="340.1002" font-size="14px" y="309.0351" clip-path="url(#clipPath2)" font-family="monospace" stroke="none" xml:space="preserve">200 OK</text>
      <text x="203.4063" font-size="14px" y="337.332" clip-path="url(#clipPath2)" font-family="monospace" stroke="none" xml:space="preserve">{"data": </text>
      <text x="203.4063" font-size="14px" y="353.6289" clip-path="url(#clipPath2)" font-family="monospace" stroke="none" xml:space="preserve">{"name": "Paul", "status": "employed"}</text>
      <text x="203.4063" font-size="14px" y="369.9258" clip-path="url(#clipPath2)" font-family="monospace" stroke="none" xml:space="preserve">}</text>
    </g>
    <g fill="rgb(234,234,234)" text-rendering="geometricPrecision" shape-rendering="geometricPrecision" transform="matrix(1,0,0,1,-76,-54)" stroke="rgb(234,234,234)">
      <rect x="81.6295" y="59" clip-path="url(#clipPath2)" width="87.7768" rx="4" ry="4" height="319.4" stroke="none"/>
    </g>
    <g font-size="15px" stroke-linecap="butt" transform="matrix(1,0,0,1,-76,-54)" text-rendering="geometricPrecision" font-family="sans-serif" shape-rendering="geometricPrecision" stroke-miterlimit="1.45">
      <text x="103.8053" xml:space="preserve" y="223.8929" clip-path="url(#clipPath2)" stroke="none">Client</text>
    </g>
    <g stroke-linecap="butt" transform="matrix(1,0,0,1,-76,-54)" fill="rgb(234,234,234)" text-rendering="geometricPrecision" shape-rendering="geometricPrecision" stroke="rgb(234,234,234)" stroke-miterlimit="1.45">
      <rect x="81.6295" y="59" clip-path="url(#clipPath2)" fill="none" width="87.7768" rx="4" ry="4" height="319.4"/>
      <rect stroke-linecap="square" x="578.6463" y="59" clip-path="url(#clipPath2)" width="87.7768" rx="4" ry="4" height="319.4" stroke="none" stroke-miterlimit="10"/>
    </g>
    <g font-size="15px" stroke-linecap="butt" transform="matrix(1,0,0,1,-76,-54)" text-rendering="geometricPrecision" font-family="sans-serif" shape-rendering="geometricPrecision" stroke-miterlimit="1.45">
      <text x="593.7652" xml:space="preserve" y="215.1624" clip-path="url(#clipPath2)" stroke="none">RESTful</text>
      <text x="594.8162" xml:space="preserve" y="232.6233" clip-path="url(#clipPath2)" stroke="none">Service</text>
    </g>
    <g stroke-linecap="butt" transform="matrix(1,0,0,1,-76,-54)" fill="rgb(234,234,234)" text-rendering="geometricPrecision" shape-rendering="geometricPrecision" stroke="rgb(234,234,234)" stroke-miterlimit="1.45">
      <rect x="578.6463" y="59" clip-path="url(#clipPath2)" fill="none" width="87.7768" rx="4" ry="4" height="319.4"/>
    </g>
    <g fill="white" text-rendering="geometricPrecision" shape-rendering="geometricPrecision" transform="matrix(1,0,0,1,-76,-54)" stroke="white">
      <rect x="81.6295" y="386.175" clip-path="url(#clipPath11)" width="87.7768" rx="4" ry="4" height="47.4" stroke="none"/>
      <rect x="81.6295" y="386.175" clip-path="url(#clipPath12)" fill="rgb(234,234,234)" width="87.7768" rx="4" ry="4" height="47.4" stroke="none"/>
    </g>
    <g text-rendering="geometricPrecision" stroke-miterlimit="1.45" shape-rendering="geometricPrecision" transform="matrix(1,0,0,1,-76,-54)" stroke-linecap="butt">
      <rect x="81.6295" y="386.175" clip-path="url(#clipPath2)" fill="none" width="87.7768" rx="4" ry="4" height="47.4"/>
      <line y2="409.8156" fill="none" x1="81.6295" clip-path="url(#clipPath2)" x2="169.4063" y1="409.8156"/>
      <text x="92.4051" font-size="10px" y="401.4572" clip-path="url(#clipPath2)" font-family="monospace" stroke="none" xml:space="preserve">HTTP Header</text>
      <text x="85.6295" font-size="10px" y="425.0978" clip-path="url(#clipPath2)" font-family="monospace" stroke="none" xml:space="preserve">HTTP Body</text>
    </g>
    <g text-rendering="geometricPrecision" stroke-miterlimit="1.45" shape-rendering="geometricPrecision" transform="matrix(1,0,0,1,-76,-54)" stroke-linecap="butt">
      <path fill="none" d="M199.3934 178.3081 L177.4175 178.3081" clip-path="url(#clipPath2)"/>
      <path d="M169.4175 178.3081 L181.4175 183.3081 L178.4175 178.3081 L181.4175 173.3081 Z" clip-path="url(#clipPath2)" stroke="none"/>
      <path fill="none" d="M199.3934 334.22 L177.4175 334.22" clip-path="url(#clipPath2)"/>
      <path d="M169.4175 334.22 L181.4175 339.22 L178.4175 334.22 L181.4175 329.22 Z" clip-path="url(#clipPath2)" stroke="none"/>
      <path fill="none" d="M169.4098 101.3699 L191.3738 101.3699" clip-path="url(#clipPath2)"/>
      <path d="M199.3738 101.3699 L187.3738 96.3699 L190.3738 101.3699 L187.3738 106.3699 Z" clip-path="url(#clipPath2)" stroke="none"/>
      <path fill="none" d="M169.4098 262.085 L191.4092 262.085" clip-path="url(#clipPath2)"/>
      <path d="M199.4092 262.085 L187.4092 257.085 L190.4092 262.085 L187.4092 267.085 Z" clip-path="url(#clipPath2)" stroke="none"/>
      <path fill="none" d="M531.3463 101.3699 L570.677 101.3699" clip-path="url(#clipPath2)"/>
      <path d="M578.677 101.3699 L566.677 96.3699 L569.677 101.3699 L566.677 106.3699 Z" clip-path="url(#clipPath2)" stroke="none"/>
      <path fill="none" d="M531.3463 262.085 L570.677 262.085" clip-path="url(#clipPath2)"/>
      <path d="M578.677 262.085 L566.677 257.085 L569.677 262.085 L566.677 267.085 Z" clip-path="url(#clipPath2)" stroke="none"/>
      <path fill="none" d="M578.6199 178.3081 L539.371 178.3081" clip-path="url(#clipPath2)"/>
      <path d="M531.371 178.3081 L543.371 183.3081 L540.371 178.3081 L543.371 173.3081 Z" clip-path="url(#clipPath2)" stroke="none"/>
      <path fill="none" d="M578.6199 334.22 L539.3763 334.22" clip-path="url(#clipPath2)"/>
      <path d="M531.3763 334.22 L543.3763 339.22 L540.3763 334.22 L543.3763 329.22 Z" clip-path="url(#clipPath2)" stroke="none"/>
    </g>
  </g>
</svg>
